<svg width="40" height="40" viewBox="0 0 40 40" fill="none" xmlns="http://www.w3.org/2000/svg">
<circle cx="20" cy="20" r="20" fill="#161C33"/>
<path d="M20.364 19.616C19.0306 19.616 17.9229 19.175 17.0406 18.293C16.1586 17.4108 15.7176 16.303 15.7176 14.9697C15.7176 13.6363 16.1586 12.5286 17.0406 11.6463C17.9229 10.7643 19.0306 10.3233 20.364 10.3233C21.6973 10.3233 22.8051 10.7643 23.6873 11.6463C24.5693 12.5286 25.0103 13.6363 25.0103 14.9697C25.0103 16.303 24.5693 17.4108 23.6873 18.293C22.8051 19.175 21.6973 19.616 20.364 19.616ZM10.667 29.3333V26.303C10.667 25.5622 10.8539 24.914 11.2276 24.3585C11.6013 23.8029 12.0879 23.3804 12.6873 23.0909C14.0071 22.4782 15.2966 22.0186 16.5558 21.7121C17.8152 21.4056 19.0846 21.2524 20.364 21.2524C21.6434 21.2524 22.9093 21.409 24.1618 21.7221C25.4144 22.0352 26.7 22.4928 28.0188 23.0948C28.6358 23.3861 29.1303 23.8085 29.5024 24.3618C29.8748 24.9151 30.0609 25.5622 30.0609 26.303V29.3333H10.667ZM12.6873 27.313H28.0406V26.303C28.0406 26.0135 27.9582 25.7408 27.7934 25.4848C27.6283 25.2289 27.4212 25.0369 27.1721 24.9091C25.9465 24.3097 24.7915 23.8871 23.7073 23.6415C22.6233 23.3956 21.5088 23.2727 20.364 23.2727C19.2191 23.2727 18.0979 23.3956 17.0003 23.6415C15.9027 23.8871 14.7479 24.3097 13.5358 24.9091C13.2865 25.0369 13.0827 25.2289 12.9246 25.4848C12.7664 25.7408 12.6873 26.0135 12.6873 26.303V27.313ZM20.364 17.596C21.1114 17.596 21.736 17.3451 22.2376 16.8433C22.7394 16.3417 22.9903 15.7171 22.9903 14.9697C22.9903 14.2222 22.7394 13.5976 22.2376 13.096C21.736 12.5942 21.1114 12.3433 20.364 12.3433C19.6165 12.3433 18.9919 12.5942 18.4903 13.096C17.9885 13.5976 17.7376 14.2222 17.7376 14.9697C17.7376 15.7171 17.9885 16.3417 18.4903 16.8433C18.9919 17.3451 19.6165 17.596 20.364 17.596Z" fill="#E3E3E3"/>
</svg>
