<svg width="60" height="60" viewBox="0 0 60 60" fill="none" xmlns="http://www.w3.org/2000/svg">
<path fill-rule="evenodd" clip-rule="evenodd" d="M30.0347 1.90918C44.8138 1.90918 56.9097 13.4033 56.9097 27.7585C56.9097 33.7643 54.7455 39.3092 51.1235 43.6837C46.3281 49.6415 38.7934 53.4607 30.3697 53.5595L30.2807 53.5918C30.0247 53.6838 29.6539 53.8163 29.1912 53.979C28.2662 54.304 26.9714 54.7503 25.4914 55.2353C22.5504 56.1993 18.8084 57.3395 15.7772 57.9735C14.2427 58.2945 12.6737 57.9295 11.4762 57.152C10.2822 56.3767 9.24544 55.0315 9.24544 53.2933C9.24544 52.2615 9.66169 51.2467 10.0672 50.4642C10.4984 49.6322 11.0517 48.8128 11.5727 48.112C11.8274 47.769 12.0812 47.4455 12.3192 47.1523C6.70194 42.4538 3.15969 35.5153 3.15969 27.7585C3.15969 18.8782 7.78394 11.0798 14.8177 6.46522C19.1699 3.55675 24.3937 1.90918 30.0347 1.90918ZM14.0909 15.0932C14.6137 14.1993 15.7619 13.8984 16.6559 14.4212C17.5499 14.9439 17.8507 16.0923 17.3279 16.9862C15.4674 20.1677 14.4097 23.84 14.4097 27.7585C14.4097 31.6655 15.4657 35.329 17.3269 38.504C17.8507 39.3972 17.5509 40.546 16.6577 41.0698C15.7644 41.5935 14.6157 41.2938 14.0919 40.4005C11.9039 36.6683 10.6597 32.3525 10.6597 27.7585C10.6597 23.154 11.9052 18.8309 14.0909 15.0932Z" fill="#4C7AEF"/>
</svg>
