<svg width="192" height="120" viewBox="0 0 192 120" fill="none" xmlns="http://www.w3.org/2000/svg">
<g clip-path="url(#clip0_38_124)">
<circle cx="11" cy="8" r="8" fill="#F5F9FF"/>
<circle cx="53" cy="8" r="8" fill="#F5F9FF"/>
<circle cx="96" cy="8" r="8" fill="#F5F9FF"/>
<circle cx="138" cy="7" r="8" fill="#F5F9FF"/>
<circle cx="181" cy="8" r="8" fill="#F5F9FF"/>
<circle cx="11" cy="42" r="8" fill="#F5F9FF"/>
<circle cx="53" cy="43" r="8" fill="#F5F9FF"/>
<circle cx="96" cy="42" r="8" fill="#F5F9FF"/>
<circle cx="138" cy="43" r="8" fill="#F5F9FF"/>
<circle cx="181" cy="43" r="8" fill="#F5F9FF"/>
<circle cx="11" cy="77" r="8" fill="#F5F9FF"/>
<circle cx="11" cy="112" r="8" fill="#F5F9FF"/>
<circle cx="53" cy="112" r="8" fill="#F5F9FF"/>
<circle cx="96" cy="112" r="8" fill="#F5F9FF"/>
<circle cx="138" cy="112" r="8" fill="#F5F9FF"/>
<circle cx="181" cy="112" r="8" fill="#F5F9FF"/>
<circle cx="53" cy="77" r="8" fill="#F5F9FF"/>
<circle cx="96" cy="77" r="8" fill="#F5F9FF"/>
<circle cx="138" cy="77" r="8" fill="#F5F9FF"/>
<circle cx="181" cy="77" r="8" fill="#F5F9FF"/>
</g>
<defs>
<clipPath id="clip0_38_124">
<rect width="192" height="120" fill="white"/>
</clipPath>
</defs>
</svg>
