<svg width="162" height="60" viewBox="0 0 162 60" fill="none" xmlns="http://www.w3.org/2000/svg">
<g clip-path="url(#clip0_38_32)">
<mask id="mask0_38_32" style="mask-type:luminance" maskUnits="userSpaceOnUse" x="106" y="6" width="63" height="49">
<path d="M168.221 35.3612L145.465 6.06744L106.47 25.6891L129.226 54.9829L168.221 35.3612Z" fill="white"/>
</mask>
<g mask="url(#mask0_38_32)">
<path d="M139.625 26.6976C142.497 26.7521 145.09 27.6322 146.866 29.1558C148.643 30.6796 149.467 32.7301 149.17 34.8837L149.098 35.303L147.718 42.0178C147.267 44.2062 145.693 46.2857 143.332 47.8131C140.972 49.3404 138.012 50.1948 135.082 50.1943C132.153 50.1936 129.486 49.3379 127.65 47.8097C125.815 46.2813 124.955 44.2012 125.256 42.0128L125.329 41.5948L126.362 36.5571C126.451 36.1306 126.753 35.7246 127.206 35.4214C127.66 35.118 128.231 34.9403 128.804 34.9243C129.378 34.9084 129.91 35.0552 130.293 35.3352C130.676 35.6152 130.88 36.0071 130.866 36.4316L130.84 36.6421L129.806 41.6795C129.532 42.9891 129.95 44.2616 130.969 45.2271C131.989 46.1924 133.531 46.7748 135.268 46.8506C137.006 46.9265 138.801 46.4899 140.275 45.6333C141.748 44.7768 142.783 43.5678 143.16 42.2627L143.241 41.933L144.619 35.2192C144.754 34.5578 144.715 33.8997 144.503 33.2822C144.291 32.6646 143.91 32.1001 143.382 31.6206C142.854 31.1411 142.19 30.756 141.426 30.4875C140.663 30.2189 139.816 30.0722 138.934 30.0556C138.34 30.0442 137.807 29.8563 137.452 29.5334C137.097 29.2104 136.948 28.7788 137.04 28.3335C137.132 27.8882 137.455 27.4657 137.94 27.1589C138.425 26.8521 139.031 26.6862 139.625 26.6976ZM142.725 11.5894C145.597 11.6439 148.19 12.524 149.967 14.0477C151.743 15.5713 152.568 17.6221 152.27 19.7755L152.198 20.1948L151.161 25.2324C151.073 25.6588 150.771 26.065 150.317 26.3683C149.864 26.6715 149.292 26.8492 148.719 26.8651C148.146 26.8811 147.614 26.7342 147.231 26.4543C146.848 26.1744 146.643 25.7824 146.658 25.358L146.684 25.1476L147.717 20.1124C147.979 18.8083 147.556 17.544 146.536 16.5855C145.517 15.6268 143.981 15.0486 142.252 14.9725C140.522 14.8963 138.734 15.3282 137.264 16.1771C135.793 17.0261 134.755 18.226 134.367 19.5245L134.285 19.8554L132.906 26.5715C132.633 27.9068 133.078 29.2008 134.143 30.169C135.209 31.1371 136.809 31.7 138.59 31.734C138.884 31.7395 139.166 31.7883 139.421 31.8778C139.675 31.9672 139.897 32.0956 140.073 32.2553C140.249 32.4152 140.376 32.6033 140.447 32.8091C140.518 33.0149 140.531 33.2344 140.485 33.4549C140.441 33.6753 140.338 33.8925 140.184 34.0942C140.029 34.2959 139.826 34.4778 139.586 34.6298C139.347 34.7818 139.074 34.901 138.785 34.9803C138.496 35.0595 138.196 35.0976 137.902 35.0921C135.03 35.0375 132.437 34.1575 130.661 32.6337C128.884 31.1101 128.059 29.0594 128.357 26.906L128.428 26.4854L129.807 19.7706C130.264 17.545 131.882 15.433 134.304 13.899C136.726 12.365 139.756 11.5335 142.725 11.5894Z" fill="#265FDA"/>
</g>
<path d="M21.979 44.9558L21.499 48.9474H2.4758L6.92212 12.7453H11.6463L7.68001 44.9558H21.979ZM32.3413 23.3558V48.9474H27.8444V23.3558H32.3413ZM33.3013 15.3221C33.3013 15.76 33.2086 16.1727 33.0234 16.56C32.8549 16.9306 32.6192 17.2674 32.316 17.5705C32.0296 17.8568 31.6844 18.0842 31.2802 18.2526C30.8927 18.4211 30.4802 18.5053 30.0423 18.5053C29.6043 18.5053 29.1917 18.4211 28.8044 18.2526C28.4339 18.0842 28.1054 17.8568 27.8192 17.5705C27.5327 17.2674 27.3054 16.9306 27.1371 16.56C26.9686 16.1727 26.8844 15.76 26.8844 15.3221C26.8844 14.8842 26.9686 14.4716 27.1371 14.0842C27.3054 13.68 27.5327 13.3347 27.8192 13.0484C28.1054 12.7453 28.4339 12.5095 28.8044 12.3411C29.1917 12.1726 29.6043 12.0884 30.0423 12.0884C30.4802 12.0884 30.8927 12.1726 31.2802 12.3411C31.6844 12.5095 32.0296 12.7453 32.316 13.0484C32.6192 13.3347 32.8549 13.68 33.0234 14.0842C33.2086 14.4716 33.3013 14.8842 33.3013 15.3221ZM43.9742 27.0695C44.53 26.4463 45.1194 25.8821 45.7426 25.3768C46.3656 24.8716 47.0225 24.4421 47.7131 24.0884C48.4205 23.7178 49.1615 23.4399 49.9363 23.2547C50.7278 23.0526 51.5784 22.9516 52.4879 22.9516C53.8857 22.9516 55.1152 23.1873 56.1763 23.659C57.2541 24.1137 58.1468 24.7705 58.8542 25.6295C59.5783 26.4715 60.1257 27.4906 60.4963 28.6863C60.8667 29.8821 61.0521 31.2043 61.0521 32.6526V48.9474H56.53V32.6526C56.53 30.7157 56.0836 29.2168 55.191 28.1558C54.3152 27.0778 52.9762 26.539 51.1742 26.539C49.8436 26.539 48.5973 26.859 47.4352 27.499C46.2899 28.1389 45.2288 29.0064 44.2521 30.1011V48.9474H39.73V23.3558H42.4331C43.0731 23.3558 43.4689 23.6673 43.6205 24.2905L43.9742 27.0695ZM72.4263 11.7347V33.6379H73.5884C73.9252 33.6379 74.2031 33.5957 74.4221 33.5116C74.6579 33.4105 74.9021 33.2168 75.1547 32.9305L83.239 24.2653C83.4747 23.979 83.719 23.76 83.9716 23.6084C84.2411 23.4399 84.5948 23.3558 85.0326 23.3558H89.1L79.6769 33.3853C79.2221 33.9579 78.7337 34.4042 78.2116 34.7242C78.5147 34.9263 78.7843 35.1621 79.02 35.4316C79.2726 35.6842 79.5084 35.979 79.7274 36.3158L89.7316 48.9474H85.7147C85.3274 48.9474 84.9905 48.8885 84.7042 48.7705C84.4347 48.6358 84.199 48.3999 83.9969 48.0632L75.5842 37.5789C75.3316 37.2253 75.079 36.9979 74.8263 36.8968C74.5906 36.7789 74.22 36.72 73.7148 36.72H72.4263V48.9474H67.9042V11.7347H72.4263ZM105.865 45.2337C107.229 45.2337 108.476 44.9727 109.604 44.4505C110.733 43.9284 111.726 43.2126 112.585 42.3032C113.444 41.3768 114.143 40.2737 114.682 38.9937C115.238 37.7136 115.608 36.3158 115.794 34.8L118.497 12.7453H123.221L120.518 34.8C120.265 36.8716 119.718 38.7999 118.876 40.5853C118.034 42.3537 116.956 43.8947 115.642 45.2084C114.328 46.5052 112.804 47.5243 111.069 48.2653C109.335 49.0063 107.432 49.3768 105.36 49.3768C103.305 49.3768 101.495 49.0063 99.9284 48.2653C98.379 47.5243 97.1073 46.5052 96.1137 45.2084C95.1201 43.8947 94.4211 42.3537 94.0169 40.5853C93.6295 38.7999 93.5621 36.8716 93.8148 34.8L96.4926 12.7453H101.217L98.5137 34.7747C98.3285 36.2905 98.3537 37.6884 98.5895 38.9684C98.8252 40.2485 99.2547 41.3515 99.8779 42.2779C100.501 43.2043 101.31 43.9284 102.303 44.4505C103.314 44.9727 104.501 45.2337 105.865 45.2337Z" fill="#294CEB"/>
</g>
<defs>
<clipPath id="clip0_38_32">
<rect width="161.053" height="60" fill="white"/>
</clipPath>
</defs>
</svg>
