<svg width="55" height="55" viewBox="0 0 55 55" fill="none" xmlns="http://www.w3.org/2000/svg">
<circle cx="27.5" cy="27.5" r="27.5" fill="#4C7AEF"/>
<path d="M27.9998 26.9721C26.1665 26.9721 24.6433 26.3657 23.4303 25.1529C22.2175 23.9399 21.6111 22.4167 21.6111 20.5833C21.6111 18.75 22.2175 17.2268 23.4303 16.0137C24.6433 14.801 26.1665 14.1946 27.9998 14.1946C29.8332 14.1946 31.3564 14.801 32.5694 16.0137C33.7822 17.2268 34.3886 18.75 34.3886 20.5833C34.3886 22.4167 33.7822 23.9399 32.5694 25.1529C31.3564 26.3657 29.8332 26.9721 27.9998 26.9721ZM14.6665 40.3333V36.1667C14.6665 35.1481 14.9234 34.2568 15.4373 33.4929C15.9512 32.729 16.6203 32.1481 17.4444 31.75C19.2591 30.9075 21.0322 30.2756 22.7636 29.8542C24.4953 29.4328 26.2407 29.2221 27.9998 29.2221C29.759 29.2221 31.4997 29.4374 33.2219 29.8679C34.9441 30.2985 36.7119 30.9276 38.5253 31.7554C39.3736 32.156 40.0536 32.7367 40.5653 33.4975C41.0772 34.2583 41.3332 35.1481 41.3332 36.1667V40.3333H14.6665ZM17.4444 37.5554H38.5553V36.1667C38.5553 35.7686 38.4419 35.3936 38.2153 35.0417C37.9883 34.6897 37.7036 34.4258 37.3611 34.25C35.6758 33.4258 34.0878 32.8449 32.5969 32.5071C31.1064 32.169 29.574 32 27.9998 32C26.4257 32 24.884 32.169 23.3748 32.5071C21.8657 32.8449 20.2778 33.4258 18.6111 34.25C18.2683 34.4258 17.9882 34.6897 17.7707 35.0417C17.5532 35.3936 17.4444 35.7686 17.4444 36.1667V37.5554ZM27.9998 24.1946C29.0276 24.1946 29.8864 23.8496 30.5761 23.1596C31.2661 22.4699 31.6111 21.6111 31.6111 20.5833C31.6111 19.5556 31.2661 18.6968 30.5761 18.0071C29.8864 17.3171 29.0276 16.9721 27.9998 16.9721C26.9721 16.9721 26.1133 17.3171 25.4236 18.0071C24.7336 18.6968 24.3886 19.5556 24.3886 20.5833C24.3886 21.6111 24.7336 22.4699 25.4236 23.1596C26.1133 23.8496 26.9721 24.1946 27.9998 24.1946Z" fill="#E3E3E3"/>
</svg>
