<svg width="55" height="55" viewBox="0 0 55 55" fill="none" xmlns="http://www.w3.org/2000/svg">
<path fill-rule="evenodd" clip-rule="evenodd" d="M21 21.5C21 28.4036 26.5964 34 33.5 34C40.4036 34 46 28.4036 46 21.5C46 14.5964 40.4036 9 33.5 9C26.5964 9 21 14.5964 21 21.5ZM42.4286 21.5C42.4286 20.3275 42.1976 19.1664 41.7489 18.0832C41.3002 16.9999 40.6426 16.0156 39.8134 15.1866C38.9844 14.3574 38.0001 13.6998 36.9168 13.2511C35.8336 12.8024 34.6725 12.5714 33.5 12.5714C32.5138 12.5714 31.7143 13.3709 31.7143 14.3571C31.7143 15.3434 32.5138 16.1429 33.5 16.1429C34.2036 16.1429 34.9002 16.2814 35.5501 16.5506C36.2001 16.8199 36.7906 17.2145 37.2881 17.7119C37.7855 18.2094 38.1801 18.7999 38.4494 19.4499C38.7186 20.0998 38.8571 20.7964 38.8571 21.5C38.8571 22.4862 39.6566 23.2857 40.6429 23.2857C41.6291 23.2857 42.4286 22.4862 42.4286 21.5Z" fill="#222222"/>
<path d="M13 43L23 33" stroke="#222222" stroke-width="2" stroke-linecap="round"/>
</svg>
